<svg width="1641.455029296875px" height="264.79999999999995px" xmlns="http://www.w3.org/2000/svg" viewBox="-570.7275146484375 -57.39999999999998 1641.455029296875 264.79999999999995" style="background: rgba(255, 255, 255, 0);" preserveAspectRatio="xMidYMid"><defs><filter id="editing-hole" x="-100%" y="-100%" width="300%" height="300%"><feFlood flood-color="#000000" result="black"></feFlood><feMorphology operator="dilate" radius="2" in="SourceGraphic" result="erode"></feMorphology><feGaussianBlur in="erode" stdDeviation="4" result="blur"></feGaussianBlur><feOffset in="blur" dx="2" dy="2" result="offset"></feOffset><feComposite operator="atop" in="offset" in2="black" result="merge"></feComposite><feComposite operator="in" in="merge" in2="SourceGraphic" result="inner-shadow"></feComposite></filter></defs><g filter="url(#editing-hole)"><g transform="translate(-347.6200141906738, 129.01499938964844)"><path d="M72.14 0L67.68 0L28.49-76.98L28.49 0L13.48 0L13.48-105.03L29.88-105.03L69.87-25.93L109.94-105.03L126.27-105.03L126.27 0L111.33 0L111.33-76.98L72.14 0ZM217.82-63.57L217.82-31.64L166.19-31.64L166.19-14.43L217.82-14.43L217.82 0L166.19 0L166.19 0Q163.26 0 160.62-1.14L160.62-1.14L160.62-1.14Q157.98-2.27 156.04-4.21L156.04-4.21L156.04-4.21Q154.10-6.15 152.97-8.79L152.97-8.79L152.97-8.79Q151.83-11.43 151.83-14.43L151.83-14.43L151.83-63.57L151.83-63.57Q151.83-66.58 152.97-69.21L152.97-69.21L152.97-69.21Q154.10-71.85 156.04-73.79L156.04-73.79L156.04-73.79Q157.98-75.73 160.62-76.87L160.62-76.87L160.62-76.87Q163.26-78.00 166.19-78.00L166.19-78.00L203.39-78.00L203.39-78.00Q206.40-78.00 209.03-76.87L209.03-76.87L209.03-76.87Q211.67-75.73 213.61-73.79L213.61-73.79L213.61-73.79Q215.55-71.85 216.69-69.21L216.69-69.21L216.69-69.21Q217.82-66.58 217.82-63.57L217.82-63.57ZM203.39-63.57L166.19-63.57L166.19-46.07L203.39-46.07L203.39-63.57ZM241.85-14.43L241.85-78.00L256.20-78.00L256.20-14.43L296.41-14.43L296.41-78.00L310.84-78.00L310.84 0L296.41 0L296.41-13.18L296.41-13.18Q296.19-10.47 294.95-8.06L294.95-8.06L294.95-8.06Q293.70-5.64 291.76-3.85L291.76-3.85L291.76-3.85Q289.82-2.05 287.33-1.03L287.33-1.03L287.33-1.03Q284.84 0 282.06 0L282.06 0L256.20 0L256.20 0Q253.27 0 250.63-1.14L250.63-1.14L250.63-1.14Q248.00-2.27 246.06-4.21L246.06-4.21L246.06-4.21Q244.12-6.15 242.98-8.79L242.98-8.79L242.98-8.79Q241.85-11.43 241.85-14.43L241.85-14.43ZM333.33-14.43L381.96-14.43L381.96-32.52L347.75-32.52L347.75-32.52Q344.75-32.52 342.11-33.65L342.11-33.65L342.11-33.65Q339.48-34.79 337.54-36.73L337.54-36.73L337.54-36.73Q335.60-38.67 334.46-41.31L334.46-41.31L334.46-41.31Q333.33-43.95 333.33-46.95L333.33-46.95L333.33-63.57L333.33-63.57Q333.33-66.58 334.46-69.21L334.46-69.21L334.46-69.21Q335.60-71.85 337.54-73.79L337.54-73.79L337.54-73.79Q339.48-75.73 342.11-76.87L342.11-76.87L342.11-76.87Q344.75-78.00 347.75-78.00L347.75-78.00L393.38-78.00L393.38-63.57L347.75-63.57L347.75-46.95L381.96-46.95L381.96-46.95Q384.96-46.95 387.56-45.81L387.56-45.81L387.56-45.81Q390.16-44.68 392.14-42.74L392.14-42.74L392.14-42.74Q394.12-40.80 395.25-38.16L395.25-38.16L395.25-38.16Q396.39-35.52 396.39-32.52L396.39-32.52L396.39-14.43L396.39-14.43Q396.39-11.43 395.25-8.79L395.25-8.79L395.25-8.79Q394.12-6.15 392.14-4.21L392.14-4.21L392.14-4.21Q390.16-2.27 387.56-1.14L387.56-1.14L387.56-1.14Q384.96 0 381.96 0L381.96 0L333.33 0L333.33-14.43ZM456.30-90.01L456.30-105.03L540.31-105.03L540.31-90.01L505.81-90.01L505.81 0L490.80 0L490.80-90.01L456.30-90.01ZM591.94-63.57L562.21-63.57L562.21 0L547.85 0L547.85-78.00L562.21-78.00L562.21-64.23L562.21-64.23Q562.35-67.09 563.53-69.62L563.53-69.62L563.53-69.62Q564.70-72.14 566.64-74.01L566.64-74.01L566.64-74.01Q568.58-75.88 571.14-76.94L571.14-76.94L571.14-76.94Q573.71-78.00 576.64-78.00L576.64-78.00L591.94-78.00L591.94-78.00Q594.95-78.00 597.55-76.87L597.55-76.87L597.55-76.87Q600.15-75.73 602.12-73.79L602.12-73.79L602.12-73.79Q604.10-71.85 605.24-69.21L605.24-69.21L605.24-69.21Q606.37-66.58 606.37-63.57L606.37-63.57L606.37-50.39L591.94-50.39L591.94-63.57ZM624.32-14.43L624.32-34.06L624.32-34.06Q624.32-37.06 625.45-39.66L625.45-39.66L625.45-39.66Q626.59-42.26 628.53-44.24L628.53-44.24L628.53-44.24Q630.47-46.22 633.11-47.35L633.11-47.35L633.11-47.35Q635.74-48.49 638.67-48.49L638.67-48.49L675.88-48.49L675.88-63.57L628.78-63.57L628.78-78.00L675.88-78.00L675.88-78.00Q678.88-78.00 681.52-76.87L681.52-76.87L681.52-76.87Q684.16-75.73 686.10-73.79L686.10-73.79L686.10-73.79Q688.04-71.85 689.17-69.21L689.17-69.21L689.17-69.21Q690.31-66.58 690.31-63.57L690.31-63.57L690.31 0L675.88 0L675.88-13.18L675.88-13.18Q675.66-10.47 674.41-8.06L674.41-8.06L674.41-8.06Q673.17-5.64 671.23-3.85L671.23-3.85L671.23-3.85Q669.29-2.05 666.80-1.03L666.80-1.03L666.80-1.03Q664.31 0 661.52 0L661.52 0L638.67 0L638.67 0Q635.74 0 633.11-1.14L633.11-1.14L633.11-1.14Q630.47-2.27 628.53-4.21L628.53-4.21L628.53-4.21Q626.59-6.15 625.45-8.79L625.45-8.79L625.45-8.79Q624.32-11.43 624.32-14.43L624.32-14.43ZM638.67-34.06L638.67-14.43L675.88-14.43L675.88-34.06L638.67-34.06ZM783.33-63.57L783.33-14.43L783.33-14.43Q783.33-11.43 782.19-8.79L782.19-8.79L782.19-8.79Q781.05-6.15 779.11-4.21L779.11-4.21L779.11-4.21Q777.17-2.27 774.54-1.14L774.54-1.14L774.54-1.14Q771.90 0 768.90 0L768.90 0L728.69 0L728.69 0Q725.76 0 723.12-1.14L723.12-1.14L723.12-1.14Q720.48-2.27 718.54-4.21L718.54-4.21L718.54-4.21Q716.60-6.15 715.47-8.79L715.47-8.79L715.47-8.79Q714.33-11.43 714.33-14.43L714.33-14.43L714.33-108.03L728.69-108.03L728.69-64.23L728.69-64.23Q728.83-67.09 730.00-69.62L730.00-69.62L730.00-69.62Q731.18-72.14 733.12-74.01L733.12-74.01L733.12-74.01Q735.06-75.88 737.62-76.94L737.62-76.94L737.62-76.94Q740.19-78.00 743.12-78.00L743.12-78.00L768.90-78.00L768.90-78.00Q771.90-78.00 774.54-76.87L774.54-76.87L774.54-76.87Q777.17-75.73 779.11-73.79L779.11-73.79L779.11-73.79Q781.05-71.85 782.19-69.21L782.19-69.21L782.19-69.21Q783.33-66.58 783.33-63.57L783.33-63.57ZM768.90-63.57L728.69-63.57L728.69-14.43L768.90-14.43L768.90-63.57ZM807.35-14.43L807.35-34.06L807.35-34.06Q807.35-37.06 808.48-39.66L808.48-39.66L808.48-39.66Q809.62-42.26 811.56-44.24L811.56-44.24L811.56-44.24Q813.50-46.22 816.14-47.35L816.14-47.35L816.14-47.35Q818.77-48.49 821.70-48.49L821.70-48.49L858.91-48.49L858.91-63.57L811.82-63.57L811.82-78.00L858.91-78.00L858.91-78.00Q861.91-78.00 864.55-76.87L864.55-76.87L864.55-76.87Q867.19-75.73 869.13-73.79L869.13-73.79L869.13-73.79Q871.07-71.85 872.20-69.21L872.20-69.21L872.20-69.21Q873.34-66.58 873.34-63.57L873.34-63.57L873.34 0L858.91 0L858.91-13.18L858.91-13.18Q858.69-10.47 857.45-8.06L857.45-8.06L857.45-8.06Q856.20-5.64 854.26-3.85L854.26-3.85L854.26-3.85Q852.32-2.05 849.83-1.03L849.83-1.03L849.83-1.03Q847.34 0 844.56 0L844.56 0L821.70 0L821.70 0Q818.77 0 816.14-1.14L816.14-1.14L816.14-1.14Q813.50-2.27 811.56-4.21L811.56-4.21L811.56-4.21Q809.62-6.15 808.48-8.79L808.48-8.79L808.48-8.79Q807.35-11.43 807.35-14.43L807.35-14.43ZM821.70-34.06L821.70-14.43L858.91-14.43L858.91-34.06L821.70-34.06ZM897.36-108.03L911.72-108.03L911.72 0L897.36 0L897.36-108.03ZM1004.74-63.57L1004.74 0L990.31 0L990.31-63.57L950.10-63.57L950.10 0L935.74 0L935.74-108.03L950.10-108.03L950.10-64.23L950.10-64.23Q950.24-67.09 951.42-69.62L951.42-69.62L951.42-69.62Q952.59-72.14 954.53-74.01L954.53-74.01L954.53-74.01Q956.47-75.88 959.03-76.94L959.03-76.94L959.03-76.94Q961.60-78.00 964.53-78.00L964.53-78.00L990.31-78.00L990.31-78.00Q993.31-78.00 995.95-76.87L995.95-76.87L995.95-76.87Q998.58-75.73 1000.52-73.79L1000.52-73.79L1000.52-73.79Q1002.47-71.85 1003.60-69.21L1003.60-69.21L1003.60-69.21Q1004.74-66.58 1004.74-63.57L1004.74-63.57ZM1096.22-63.57L1096.22-14.43L1096.22-14.43Q1096.22-11.43 1095.08-8.79L1095.08-8.79L1095.08-8.79Q1093.95-6.15 1092.00-4.21L1092.00-4.21L1092.00-4.21Q1090.06-2.27 1087.46-1.14L1087.46-1.14L1087.46-1.14Q1084.86 0 1081.86 0L1081.86 0L1043.12 0L1043.12 0Q1040.19 0 1037.55-1.14L1037.55-1.14L1037.55-1.14Q1034.91-2.27 1032.97-4.21L1032.97-4.21L1032.97-4.21Q1031.03-6.15 1029.90-8.79L1029.90-8.79L1029.90-8.79Q1028.76-11.43 1028.76-14.43L1028.76-14.43L1028.76-63.57L1028.76-63.57Q1028.76-66.58 1029.90-69.21L1029.90-69.21L1029.90-69.21Q1031.03-71.85 1032.97-73.79L1032.97-73.79L1032.97-73.79Q1034.91-75.73 1037.55-76.87L1037.55-76.87L1037.55-76.87Q1040.19-78.00 1043.12-78.00L1043.12-78.00L1081.86-78.00L1081.86-78.00Q1084.86-78.00 1087.46-76.87L1087.46-76.87L1087.46-76.87Q1090.06-75.73 1092.00-73.79L1092.00-73.79L1092.00-73.79Q1093.95-71.85 1095.08-69.21L1095.08-69.21L1095.08-69.21Q1096.22-66.58 1096.22-63.57L1096.22-63.57ZM1081.86-63.57L1043.12-63.57L1043.12-14.43L1081.86-14.43L1081.86-63.57ZM1118.70-14.43L1167.33-14.43L1167.33-32.52L1133.13-32.52L1133.13-32.52Q1130.13-32.52 1127.49-33.65L1127.49-33.65L1127.49-33.65Q1124.85-34.79 1122.91-36.73L1122.91-36.73L1122.91-36.73Q1120.97-38.67 1119.84-41.31L1119.84-41.31L1119.84-41.31Q1118.70-43.95 1118.70-46.95L1118.70-46.95L1118.70-63.57L1118.70-63.57Q1118.70-66.58 1119.84-69.21L1119.84-69.21L1119.84-69.21Q1120.97-71.85 1122.91-73.79L1122.91-73.79L1122.91-73.79Q1124.85-75.73 1127.49-76.87L1127.49-76.87L1127.49-76.87Q1130.13-78.00 1133.13-78.00L1133.13-78.00L1178.76-78.00L1178.76-63.57L1133.13-63.57L1133.13-46.95L1167.33-46.95L1167.33-46.95Q1170.34-46.95 1172.94-45.81L1172.94-45.81L1172.94-45.81Q1175.54-44.68 1177.51-42.74L1177.51-42.74L1177.51-42.74Q1179.49-40.80 1180.63-38.16L1180.63-38.16L1180.63-38.16Q1181.76-35.52 1181.76-32.52L1181.76-32.52L1181.76-14.43L1181.76-14.43Q1181.76-11.43 1180.63-8.79L1180.63-8.79L1180.63-8.79Q1179.49-6.15 1177.51-4.21L1177.51-4.21L1177.51-4.21Q1175.54-2.27 1172.94-1.14L1172.94-1.14L1172.94-1.14Q1170.34 0 1167.33 0L1167.33 0L1118.70 0L1118.70-14.43Z" fill="#486390"></path></g></g><style>text {
  font-size: 64px;
  font-family: Arial Black;
  dominant-baseline: central;
  text-anchor: middle;
}</style></svg>