<svg width="1347.1102050781249px" height="264.79999999999995px" xmlns="http://www.w3.org/2000/svg" viewBox="-423.55510253906243 -57.39999999999998 1347.1102050781249 264.79999999999995" style="background: rgba(255, 255, 255, 0);" preserveAspectRatio="xMidYMid"><defs><filter id="editing-hole" x="-100%" y="-100%" width="300%" height="300%"><feFlood flood-color="#000000" result="black"></feFlood><feMorphology operator="dilate" radius="2" in="SourceGraphic" result="erode"></feMorphology><feGaussianBlur in="erode" stdDeviation="4" result="blur"></feGaussianBlur><feOffset in="blur" dx="2" dy="2" result="offset"></feOffset><feComposite operator="atop" in="offset" in2="black" result="merge"></feComposite><feComposite operator="in" in="merge" in2="SourceGraphic" result="inner-shadow"></feComposite></filter></defs><g filter="url(#editing-hole)"><g transform="translate(-239.40500259399414, 129.01499938964844)"><path d="M72.14 0L67.68 0L28.49-76.98L28.49 0L13.48 0L13.48-105.03L29.88-105.03L69.87-25.93L109.94-105.03L126.27-105.03L126.27 0L111.33 0L111.33-76.98L72.14 0ZM152.56-78.00L166.99-78.00L166.99 0L152.56 0L152.56-78.00ZM151.83-93.02L151.83-108.03L167.72-108.03L167.72-93.02L151.83-93.02ZM260.74-63.57L260.74 0L246.31 0L246.31-63.57L206.10-63.57L206.10 0L191.75 0L191.75-78.00L206.10-78.00L206.10-64.23L206.10-64.23Q206.25-67.09 207.42-69.62L207.42-69.62L207.42-69.62Q208.59-72.14 210.53-74.01L210.53-74.01L210.53-74.01Q212.48-75.88 215.04-76.94L215.04-76.94L215.04-76.94Q217.60-78.00 220.53-78.00L220.53-78.00L246.31-78.00L246.31-78.00Q249.32-78.00 251.95-76.87L251.95-76.87L251.95-76.87Q254.59-75.73 256.53-73.79L256.53-73.79L256.53-73.79Q258.47-71.85 259.61-69.21L259.61-69.21L259.61-69.21Q260.74-66.58 260.74-63.57L260.74-63.57ZM353.76-63.57L353.76 0L339.33 0L339.33-63.57L299.12-63.57L299.12 0L284.77 0L284.77-108.03L299.12-108.03L299.12-64.23L299.12-64.23Q299.27-67.09 300.44-69.62L300.44-69.62L300.44-69.62Q301.61-72.14 303.55-74.01L303.55-74.01L303.55-74.01Q305.49-75.88 308.06-76.94L308.06-76.94L308.06-76.94Q310.62-78.00 313.55-78.00L313.55-78.00L339.33-78.00L339.33-78.00Q342.33-78.00 344.97-76.87L344.97-76.87L344.97-76.87Q347.61-75.73 349.55-73.79L349.55-73.79L349.55-73.79Q351.49-71.85 352.62-69.21L352.62-69.21L352.62-69.21Q353.76-66.58 353.76-63.57L353.76-63.57ZM377.78-14.43L377.78-34.06L377.78-34.06Q377.78-37.06 378.92-39.66L378.92-39.66L378.92-39.66Q380.05-42.26 381.99-44.24L381.99-44.24L381.99-44.24Q383.94-46.22 386.57-47.35L386.57-47.35L386.57-47.35Q389.21-48.49 392.14-48.49L392.14-48.49L429.35-48.49L429.35-63.57L382.25-63.57L382.25-78.00L429.35-78.00L429.35-78.00Q432.35-78.00 434.99-76.87L434.99-76.87L434.99-76.87Q437.62-75.73 439.56-73.79L439.56-73.79L439.56-73.79Q441.50-71.85 442.64-69.21L442.64-69.21L442.64-69.21Q443.77-66.58 443.77-63.57L443.77-63.57L443.77 0L429.35 0L429.35-13.18L429.35-13.18Q429.13-10.47 427.88-8.06L427.88-8.06L427.88-8.06Q426.64-5.64 424.69-3.85L424.69-3.85L424.69-3.85Q422.75-2.05 420.26-1.03L420.26-1.03L420.26-1.03Q417.77 0 414.99 0L414.99 0L392.14 0L392.14 0Q389.21 0 386.57-1.14L386.57-1.14L386.57-1.14Q383.94-2.27 381.99-4.21L381.99-4.21L381.99-4.21Q380.05-6.15 378.92-8.79L378.92-8.79L378.92-8.79Q377.78-11.43 377.78-14.43L377.78-14.43ZM392.14-34.06L392.14-14.43L429.35-14.43L429.35-34.06L392.14-34.06ZM466.26-14.43L514.89-14.43L514.89-32.52L480.69-32.52L480.69-32.52Q477.69-32.52 475.05-33.65L475.05-33.65L475.05-33.65Q472.41-34.79 470.47-36.73L470.47-36.73L470.47-36.73Q468.53-38.67 467.40-41.31L467.40-41.31L467.40-41.31Q466.26-43.95 466.26-46.95L466.26-46.95L466.26-63.57L466.26-63.57Q466.26-66.58 467.40-69.21L467.40-69.21L467.40-69.21Q468.53-71.85 470.47-73.79L470.47-73.79L470.47-73.79Q472.41-75.73 475.05-76.87L475.05-76.87L475.05-76.87Q477.69-78.00 480.69-78.00L480.69-78.00L526.32-78.00L526.32-63.57L480.69-63.57L480.69-46.95L514.89-46.95L514.89-46.95Q517.90-46.95 520.50-45.81L520.50-45.81L520.50-45.81Q523.10-44.68 525.07-42.74L525.07-42.74L525.07-42.74Q527.05-40.80 528.19-38.16L528.19-38.16L528.19-38.16Q529.32-35.52 529.32-32.52L529.32-32.52L529.32-14.43L529.32-14.43Q529.32-11.43 528.19-8.79L528.19-8.79L528.19-8.79Q527.05-6.15 525.07-4.21L525.07-4.21L525.07-4.21Q523.10-2.27 520.50-1.14L520.50-1.14L520.50-1.14Q517.90 0 514.89 0L514.89 0L466.26 0L466.26-14.43ZM664.23-44.97L613.26-44.97L613.26-44.97Q610.18-44.97 607.43-46.18L607.43-46.18L607.43-46.18Q604.69-47.39 602.64-49.40L602.64-49.40L602.64-49.40Q600.59-51.42 599.41-54.16L599.41-54.16L599.41-54.16Q598.24-56.91 598.24-59.99L598.24-59.99L598.24-90.01L598.24-90.01Q598.24-93.09 599.41-95.84L599.41-95.84L599.41-95.84Q600.59-98.58 602.64-100.60L602.64-100.60L602.64-100.60Q604.69-102.61 607.43-103.82L607.43-103.82L607.43-103.82Q610.18-105.03 613.26-105.03L613.26-105.03L664.23-105.03L664.23-105.03Q667.31-105.03 670.06-103.82L670.06-103.82L670.06-103.82Q672.80-102.61 674.85-100.60L674.85-100.60L674.85-100.60Q676.90-98.58 678.08-95.84L678.08-95.84L678.08-95.84Q679.25-93.09 679.25-90.01L679.25-90.01L679.25-76.46L664.23-76.46L664.23-90.01L613.26-90.01L613.26-59.99L664.23-59.99L664.23-59.99Q667.31-59.99 670.06-58.81L670.06-58.81L670.06-58.81Q672.80-57.64 674.85-55.59L674.85-55.59L674.85-55.59Q676.90-53.54 678.08-50.79L678.08-50.79L678.08-50.79Q679.25-48.05 679.25-44.97L679.25-44.97L679.25-15.01L679.25-15.01Q679.25-11.94 678.08-9.19L678.08-9.19L678.08-9.19Q676.90-6.45 674.85-4.39L674.85-4.39L674.85-4.39Q672.80-2.34 670.06-1.17L670.06-1.17L670.06-1.17Q667.31 0 664.23 0L664.23 0L611.79 0L611.79 0Q608.72 0 605.97-1.17L605.97-1.17L605.97-1.17Q603.22-2.34 601.17-4.39L601.17-4.39L601.17-4.39Q599.12-6.45 597.95-9.19L597.95-9.19L597.95-9.19Q596.78-11.94 596.78-15.01L596.78-15.01L596.78-28.49L611.79-28.49L611.79-15.01L664.23-15.01L664.23-44.97ZM776.66 0L756.37 0L719.17-33.33L719.17 0L704.81 0L704.81-108.03L719.17-108.03L719.17-47.24L753.37-78.00L773.66-78.00L731.76-40.36L776.66 0ZM787.87-78.00L802.29-78.00L802.29 0L787.87 0L787.87-78.00ZM787.13-93.02L787.13-108.03L803.03-108.03L803.03-93.02L787.13-93.02ZM827.05-108.03L841.41-108.03L841.41 0L827.05 0L827.05-108.03ZM865.43-108.03L879.79-108.03L879.79 0L865.43 0L865.43-108.03ZM902.27-14.43L950.90-14.43L950.90-32.52L916.70-32.52L916.70-32.52Q913.70-32.52 911.06-33.65L911.06-33.65L911.06-33.65Q908.42-34.79 906.48-36.73L906.48-36.73L906.48-36.73Q904.54-38.67 903.41-41.31L903.41-41.31L903.41-41.31Q902.27-43.95 902.27-46.95L902.27-46.95L902.27-63.57L902.27-63.57Q902.27-66.58 903.41-69.21L903.41-69.21L903.41-69.21Q904.54-71.85 906.48-73.79L906.48-73.79L906.48-73.79Q908.42-75.73 911.06-76.87L911.06-76.87L911.06-76.87Q913.70-78.00 916.70-78.00L916.70-78.00L962.33-78.00L962.33-63.57L916.70-63.57L916.70-46.95L950.90-46.95L950.90-46.95Q953.91-46.95 956.51-45.81L956.51-45.81L956.51-45.81Q959.11-44.68 961.08-42.74L961.08-42.74L961.08-42.74Q963.06-40.80 964.20-38.16L964.20-38.16L964.20-38.16Q965.33-35.52 965.33-32.52L965.33-32.52L965.33-14.43L965.33-14.43Q965.33-11.43 964.20-8.79L964.20-8.79L964.20-8.79Q963.06-6.15 961.08-4.21L961.08-4.21L961.08-4.21Q959.11-2.27 956.51-1.14L956.51-1.14L956.51-1.14Q953.91 0 950.90 0L950.90 0L902.27 0L902.27-14.43Z" fill="#244174"></path></g></g><style>text {
  font-size: 64px;
  font-family: Arial Black;
  dominant-baseline: central;
  text-anchor: middle;
}</style></svg>