<svg width="1122.080029296875px" height="264.79999999999995px" xmlns="http://www.w3.org/2000/svg" viewBox="-311.0400146484375 -57.39999999999998 1122.080029296875 264.79999999999995" style="background: rgba(255, 255, 255, 0);" preserveAspectRatio="xMidYMid"><defs><filter id="editing-hole" x="-100%" y="-100%" width="300%" height="300%"><feFlood flood-color="#000000" result="black"></feFlood><feMorphology operator="dilate" radius="2" in="SourceGraphic" result="erode"></feMorphology><feGaussianBlur in="erode" stdDeviation="4" result="blur"></feGaussianBlur><feOffset in="blur" dx="2" dy="2" result="offset"></feOffset><feComposite operator="atop" in="offset" in2="black" result="merge"></feComposite><feComposite operator="in" in="merge" in2="SourceGraphic" result="inner-shadow"></feComposite></filter></defs><g filter="url(#editing-hole)"><g transform="translate(-155.1750087738037, 129.01499938964844)"><path d="M79.47-44.97L28.49-44.97L28.49-44.97Q25.42-44.97 22.67-46.18L22.67-46.18L22.67-46.18Q19.92-47.39 17.87-49.40L17.87-49.40L17.87-49.40Q15.82-51.42 14.65-54.16L14.65-54.16L14.65-54.16Q13.48-56.91 13.48-59.99L13.48-59.99L13.48-90.01L13.48-90.01Q13.48-93.09 14.65-95.84L14.65-95.84L14.65-95.84Q15.82-98.58 17.87-100.60L17.87-100.60L17.87-100.60Q19.92-102.61 22.67-103.82L22.67-103.82L22.67-103.82Q25.42-105.03 28.49-105.03L28.49-105.03L79.47-105.03L79.47-105.03Q82.54-105.03 85.29-103.82L85.29-103.82L85.29-103.82Q88.04-102.61 90.09-100.60L90.09-100.60L90.09-100.60Q92.14-98.58 93.31-95.84L93.31-95.84L93.31-95.84Q94.48-93.09 94.48-90.01L94.48-90.01L94.48-76.46L79.47-76.46L79.47-90.01L28.49-90.01L28.49-59.99L79.47-59.99L79.47-59.99Q82.54-59.99 85.29-58.81L85.29-58.81L85.29-58.81Q88.04-57.64 90.09-55.59L90.09-55.59L90.09-55.59Q92.14-53.54 93.31-50.79L93.31-50.79L93.31-50.79Q94.48-48.05 94.48-44.97L94.48-44.97L94.48-15.01L94.48-15.01Q94.48-11.94 93.31-9.19L93.31-9.19L93.31-9.19Q92.14-6.45 90.09-4.39L90.09-4.39L90.09-4.39Q88.04-2.34 85.29-1.17L85.29-1.17L85.29-1.17Q82.54 0 79.47 0L79.47 0L27.03 0L27.03 0Q23.95 0 21.20-1.17L21.20-1.17L21.20-1.17Q18.46-2.34 16.41-4.39L16.41-4.39L16.41-4.39Q14.36-6.45 13.18-9.19L13.18-9.19L13.18-9.19Q12.01-11.94 12.01-15.01L12.01-15.01L12.01-28.49L27.03-28.49L27.03-15.01L79.47-15.01L79.47-44.97ZM187.50-63.57L187.50-14.43L187.50-14.43Q187.50-11.43 186.36-8.79L186.36-8.79L186.36-8.79Q185.23-6.15 183.29-4.21L183.29-4.21L183.29-4.21Q181.35-2.27 178.75-1.14L178.75-1.14L178.75-1.14Q176.15 0 173.14 0L173.14 0L134.40 0L134.40 0Q131.47 0 128.83-1.14L128.83-1.14L128.83-1.14Q126.20-2.27 124.26-4.21L124.26-4.21L124.26-4.21Q122.31-6.15 121.18-8.79L121.18-8.79L121.18-8.79Q120.04-11.43 120.04-14.43L120.04-14.43L120.04-63.57L120.04-63.57Q120.04-66.58 121.18-69.21L121.18-69.21L121.18-69.21Q122.31-71.85 124.26-73.79L124.26-73.79L124.26-73.79Q126.20-75.73 128.83-76.87L128.83-76.87L128.83-76.87Q131.47-78.00 134.40-78.00L134.40-78.00L173.14-78.00L173.14-78.00Q176.15-78.00 178.75-76.87L178.75-76.87L178.75-76.87Q181.35-75.73 183.29-73.79L183.29-73.79L183.29-73.79Q185.23-71.85 186.36-69.21L186.36-69.21L186.36-69.21Q187.50-66.58 187.50-63.57L187.50-63.57ZM173.14-63.57L134.40-63.57L134.40-14.43L173.14-14.43L173.14-63.57ZM280.52-63.57L280.52-14.43L280.52-14.43Q280.52-11.43 279.38-8.79L279.38-8.79L279.38-8.79Q278.25-6.15 276.31-4.21L276.31-4.21L276.31-4.21Q274.37-2.27 271.73-1.14L271.73-1.14L271.73-1.14Q269.09 0 266.09 0L266.09 0L225.88 0L225.88 0Q222.95 0 220.31-1.14L220.31-1.14L220.31-1.14Q217.68-2.27 215.73-4.21L215.73-4.21L215.73-4.21Q213.79-6.15 212.66-8.79L212.66-8.79L212.66-8.79Q211.52-11.43 211.52-14.43L211.52-14.43L211.52-108.03L225.88-108.03L225.88-64.23L225.88-64.23Q226.03-67.09 227.20-69.62L227.20-69.62L227.20-69.62Q228.37-72.14 230.31-74.01L230.31-74.01L230.31-74.01Q232.25-75.88 234.81-76.94L234.81-76.94L234.81-76.94Q237.38-78.00 240.31-78.00L240.31-78.00L266.09-78.00L266.09-78.00Q269.09-78.00 271.73-76.87L271.73-76.87L271.73-76.87Q274.37-75.73 276.31-73.79L276.31-73.79L276.31-73.79Q278.25-71.85 279.38-69.21L279.38-69.21L279.38-69.21Q280.52-66.58 280.52-63.57L280.52-63.57ZM266.09-63.57L225.88-63.57L225.88-14.43L266.09-14.43L266.09-63.57ZM348.63-63.57L318.90-63.57L318.90 0L304.54 0L304.54-78.00L318.90-78.00L318.90-64.23L318.90-64.23Q319.04-67.09 320.21-69.62L320.21-69.62L320.21-69.62Q321.39-72.14 323.33-74.01L323.33-74.01L323.33-74.01Q325.27-75.88 327.83-76.94L327.83-76.94L327.83-76.94Q330.40-78.00 333.33-78.00L333.33-78.00L348.63-78.00L348.63-78.00Q351.64-78.00 354.24-76.87L354.24-76.87L354.24-76.87Q356.84-75.73 358.81-73.79L358.81-73.79L358.81-73.79Q360.79-71.85 361.93-69.21L361.93-69.21L361.93-69.21Q363.06-66.58 363.06-63.57L363.06-63.57L363.06-50.39L348.63-50.39L348.63-63.57ZM447.00-63.57L447.00-31.64L395.36-31.64L395.36-14.43L447.00-14.43L447.00 0L395.36 0L395.36 0Q392.43 0 389.79-1.14L389.79-1.14L389.79-1.14Q387.16-2.27 385.22-4.21L385.22-4.21L385.22-4.21Q383.28-6.15 382.14-8.79L382.14-8.79L382.14-8.79Q381.01-11.43 381.01-14.43L381.01-14.43L381.01-63.57L381.01-63.57Q381.01-66.58 382.14-69.21L382.14-69.21L382.14-69.21Q383.28-71.85 385.22-73.79L385.22-73.79L385.22-73.79Q387.16-75.73 389.79-76.87L389.79-76.87L389.79-76.87Q392.43-78.00 395.36-78.00L395.36-78.00L432.57-78.00L432.57-78.00Q435.57-78.00 438.21-76.87L438.21-76.87L438.21-76.87Q440.84-75.73 442.79-73.79L442.79-73.79L442.79-73.79Q444.73-71.85 445.86-69.21L445.86-69.21L445.86-69.21Q447.00-66.58 447.00-63.57L447.00-63.57ZM432.57-63.57L395.36-63.57L395.36-46.07L432.57-46.07L432.57-63.57ZM610.77-63.57L577.81-63.57L577.81 0L563.38 0L563.38-63.57L530.35-63.57L530.35 0L515.99 0L515.99-78.00L530.35-78.00L530.35-64.23L530.35-64.23Q530.49-67.09 531.67-69.62L531.67-69.62L531.67-69.62Q532.84-72.14 534.78-74.01L534.78-74.01L534.78-74.01Q536.72-75.88 539.28-76.94L539.28-76.94L539.28-76.94Q541.85-78.00 544.78-78.00L544.78-78.00L563.38-78.00L563.38-78.00Q566.24-78.00 568.80-76.94L568.80-76.94L568.80-76.94Q571.36-75.88 573.34-74.01L573.34-74.01L573.34-74.01Q575.32-72.14 576.53-69.62L576.53-69.62L576.53-69.62Q577.73-67.09 577.81-64.23L577.81-64.23L577.81-64.23Q577.95-67.09 579.09-69.62L579.09-69.62L579.09-69.62Q580.22-72.14 582.17-74.01L582.17-74.01L582.17-74.01Q584.11-75.88 586.67-76.94L586.67-76.94L586.67-76.94Q589.23-78.00 592.16-78.00L592.16-78.00L610.77-78.00L610.77-78.00Q613.77-78.00 616.41-76.87L616.41-76.87L616.41-76.87Q619.04-75.73 620.98-73.79L620.98-73.79L620.98-73.79Q622.92-71.85 624.06-69.21L624.06-69.21L624.06-69.21Q625.20-66.58 625.20-63.57L625.20-63.57L625.20 0L610.77 0L610.77-63.57ZM649.95-78.00L664.38-78.00L664.38 0L649.95 0L649.95-78.00ZM649.22-93.02L649.22-108.03L665.11-108.03L665.11-93.02L649.22-93.02ZM783.91-63.57L750.95-63.57L750.95 0L736.52 0L736.52-63.57L703.49-63.57L703.49 0L689.14 0L689.14-78.00L703.49-78.00L703.49-64.23L703.49-64.23Q703.64-67.09 704.81-69.62L704.81-69.62L704.81-69.62Q705.98-72.14 707.92-74.01L707.92-74.01L707.92-74.01Q709.86-75.88 712.43-76.94L712.43-76.94L712.43-76.94Q714.99-78.00 717.92-78.00L717.92-78.00L736.52-78.00L736.52-78.00Q739.38-78.00 741.94-76.94L741.94-76.94L741.94-76.94Q744.51-75.88 746.48-74.01L746.48-74.01L746.48-74.01Q748.46-72.14 749.67-69.62L749.67-69.62L749.67-69.62Q750.88-67.09 750.95-64.23L750.95-64.23L750.95-64.23Q751.10-67.09 752.23-69.62L752.23-69.62L752.23-69.62Q753.37-72.14 755.31-74.01L755.31-74.01L755.31-74.01Q757.25-75.88 759.81-76.94L759.81-76.94L759.81-76.94Q762.38-78.00 765.31-78.00L765.31-78.00L783.91-78.00L783.91-78.00Q786.91-78.00 789.55-76.87L789.55-76.87L789.55-76.87Q792.19-75.73 794.13-73.79L794.13-73.79L794.13-73.79Q796.07-71.85 797.20-69.21L797.20-69.21L797.20-69.21Q798.34-66.58 798.34-63.57L798.34-63.57L798.34 0L783.91 0L783.91-63.57Z" fill="#486390"></path></g></g><style>text {
  font-size: 64px;
  font-family: Arial Black;
  dominant-baseline: central;
  text-anchor: middle;
}</style></svg>